<svg xmlns="http://www.w3.org/2000/svg" xmlns:xlink="http://www.w3.org/1999/xlink" width="500" zoomAndPan="magnify" viewBox="0 0 375 374.999991" height="500" preserveAspectRatio="xMidYMid meet" version="1.0"><defs><clipPath id="38f37cabef"><path d="M 6 6.613281 L 369 6.613281 L 369 368 L 6 368 Z M 6 6.613281 " clip-rule="nonzero"/></clipPath></defs><rect x="-37.5" width="450" fill="#ffffff" y="-37.499999" height="449.999989" fill-opacity="1"/><rect x="-37.5" width="450" fill="#ffffff" y="-37.499999" height="449.999989" fill-opacity="1"/><g clip-path="url(#38f37cabef)"><path fill="#231f20" d="M 317.402344 61.273438 C 283.746094 26.640625 238.589844 7.171875 190.265625 6.453125 C 189.351562 6.441406 188.4375 6.433594 187.527344 6.433594 C 89.25 6.433594 8.109375 86.304688 6.65625 184.476562 C 5.941406 232.742188 24.085938 278.398438 57.75 313.035156 C 91.414062 347.675781 136.566406 367.144531 184.890625 367.859375 C 185.808594 367.871094 186.71875 367.878906 187.632812 367.878906 C 285.898438 367.878906 367.039062 288.011719 368.496094 189.839844 C 369.214844 141.570312 351.066406 95.914062 317.402344 61.273438 Z M 187.527344 18.578125 L 190.082031 18.597656 C 235.160156 19.261719 277.28125 37.421875 308.683594 69.734375 C 338.3125 100.222656 355.035156 139.863281 356.269531 182.066406 L 259.710938 182.066406 C 257.113281 145.046875 226.46875 115.449219 188.652344 114.890625 L 187.5625 114.882812 C 150.28125 114.882812 119.222656 143.640625 115.617188 180.101562 L 19.003906 180.101562 C 22.757812 90.628906 97.382812 18.578125 187.527344 18.578125 Z M 247.773438 188.050781 C 247.289062 220.714844 220.292969 247.289062 187.597656 247.289062 L 186.6875 247.28125 C 170.605469 247.042969 155.585938 240.566406 144.382812 229.042969 C 133.179688 217.515625 127.144531 202.328125 127.382812 186.273438 C 127.867188 153.609375 154.863281 127.03125 187.5625 127.03125 L 188.476562 127.039062 C 221.660156 127.53125 248.265625 154.894531 247.773438 188.050781 Z M 187.636719 355.738281 L 185.078125 355.71875 C 140 355.050781 97.878906 336.890625 66.476562 304.578125 C 36.839844 274.097656 20.117188 234.453125 18.890625 192.25 L 115.4375 192.25 C 116.609375 209.246094 123.640625 225.132812 135.660156 237.5 C 149.121094 251.355469 167.175781 259.140625 186.503906 259.425781 L 187.597656 259.433594 C 224.875 259.433594 255.9375 230.675781 259.539062 194.214844 L 356.15625 194.214844 C 352.398438 283.6875 277.769531 355.738281 187.636719 355.738281 Z M 187.636719 355.738281 " fill-opacity="1" fill-rule="nonzero"/></g></svg>